<?xml version="1.0" encoding="utf-8"?>
<!-- Generator: Adobe Illustrator 27.5.0, SVG Export Plug-In . SVG Version: 6.00 Build 0)  -->
<svg version="1.1" id="图层_1" xmlns="http://www.w3.org/2000/svg" xmlns:xlink="http://www.w3.org/1999/xlink" x="0px" y="0px"
	 viewBox="0 0 4000 700" style="enable-background:new 0 0 4000 700;" xml:space="preserve">
<style type="text/css">
	.st0{fill:none;stroke:#444444;stroke-width:50;stroke-linejoin:round;stroke-miterlimit:2;}
	.st1{fill-rule:evenodd;clip-rule:evenodd;fill:#444444;}
	.st2{fill:none;}
	.st3{font-family:'MiSans-Demibold';}
	.st4{font-size:400px;}
</style>
<path class="st0" d="M1151.9,406.2L988.3,569.8c-8.6,8.6-20.2,13.4-32.3,13.4c-12.1,0-23.7-4.8-32.3-13.4L718.8,365V136.9h228.2
	l205,205C1169.6,359.6,1169.6,388.4,1151.9,406.2z"/>
<path class="st1" d="M851.9,301.6c17.5,0,31.7-14.2,31.7-31.7c0-17.5-14.2-31.7-31.7-31.7s-31.7,14.2-31.7,31.7
	C820.2,287.5,834.4,301.6,851.9,301.6z"/>
<rect x="1436.5" y="148.9" class="st2" width="4032" height="1789.3"/>
<text transform="matrix(1 0 0 1 1436.5107 504.8698)" class="st3 st4">样本标注器</text>
</svg>
